 <svg  version="1.0" xmlns="http://www.w3.org/2000/svg"  width="900.000000pt" height="900.000000pt" viewBox="0 0 900.000000 900.000000"  preserveAspectRatio="xMidYMid meet">  <g transform="translate(0.000000,900.000000) scale(0.100000,-0.100000)" fill="#8cb811" stroke="none"> <path d="M5260 8903 c-36 -3 -139 -29 -175 -43 -136 -54 -241 -123 -341 -224 -44 -44 -97 -107 -117 -138 -43 -67 -107 -202 -107 -224 0 -8 -5 -24 -10 -34 -21 -40 -40 -247 -40 -441 0 -117 -4 -200 -10 -204 -5 -3 -27 3 -49 15 -80 41 -220 83 -328 100 -378 60 -783 -93 -1044 -393 -133 -154 -219 -331 -270 -557 -8 -32 -15 -166 -18 -320 l-6 -265 -262 -3 c-286 -3 -286 -2 -298 56 -7 30 -30 122 -50 197 -8 28 -21 79 -30 115 -9 36 -23 88 -30 115 -8 28 -21 79 -30 115 -9 36 -23 87 -31 114 -8 26 -14 54 -14 61 0 14 -52 150 -78 205 -137 286 -397 511 -702 608 -177 56 -240 62 -620 62 -397 0 -414 -3 -506 -84 -73 -64 -94 -114 -94 -225 0 -103 12 -137 70 -203 42 -49 80 -73 140 -90 19 -6 204 -14 410 -18 355 -6 378 -8 435 -29 128 -49 244 -146 307 -261 35 -63 49 -108 115 -360 8 -30 20 -77 28 -105 7 -27 21 -79 30 -115 17 -67 31 -120 60 -230 32 -124 46 -175 59 -225 17 -60 38 -186 61 -350 16 -119 32 -229 55 -375 7 -41 16 -106 20 -145 8 -68 20 -148 42 -285 6 -36 14 -96 18 -135 4 -38 13 -104 20 -145 20 -132 38 -252 55 -370 29 -210 46 -324 60 -420 8 -52 21 -147 30 -210 9 -63 22 -154 30 -201 8 -47 15 -101 15 -120 0 -19 4 -50 10 -69 5 -19 14 -71 19 -115 9 -77 13 -108 48 -330 19 -126 66 -270 114 -355 5 -8 13 -24 18 -35 5 -11 26 -45 45 -75 20 -30 36 -57 36 -61 0 -4 -38 -34 -84 -68 -326 -237 -489 -639 -421 -1041 15 -93 23 -118 69 -230 136 -334 453 -582 817 -640 135 -21 318 -10 449 27 328 93 602 347 715 663 49 137 57 191 58 360 0 136 -4 178 -21 241 -27 101 -51 171 -64 186 -5 7 -7 17 -3 23 8 13 2911 14 2919 1 4 -5 -5 -36 -18 -68 -37 -90 -53 -159 -67 -275 -30 -258 49 -543 210 -753 128 -168 330 -312 521 -372 81 -25 252 -53 324 -53 73 0 253 29 316 50 67 22 185 74 201 87 8 7 19 13 22 13 4 0 40 23 79 51 142 100 268 250 345 412 18 37 33 72 33 77 0 5 6 24 14 42 8 18 22 67 32 108 25 105 25 355 0 460 -29 119 -64 207 -123 308 -83 142 -168 235 -306 337 -37 27 -67 52 -67 55 0 4 13 25 28 46 16 21 49 82 74 134 66 139 78 168 78 191 0 11 5 30 11 41 7 12 15 47 19 77 4 31 13 90 19 131 19 121 39 257 56 380 9 63 22 158 30 210 8 52 21 143 30 203 8 59 22 154 30 212 8 58 22 153 31 212 8 60 21 151 29 203 8 52 21 147 30 210 9 63 22 154 30 201 8 47 15 98 15 114 0 16 7 67 15 114 8 47 21 131 29 186 8 55 20 134 26 175 7 41 16 107 20 145 8 67 15 114 45 310 8 50 17 118 21 153 4 43 10 62 20 62 11 0 14 17 14 75 0 54 -3 74 -12 72 -7 -1 -18 17 -26 40 -19 60 -90 135 -157 167 l-56 26 -337 0 c-250 0 -341 3 -350 12 -9 9 -12 74 -12 228 -1 127 -6 252 -14 305 -15 102 -43 215 -57 230 -5 5 -9 16 -9 25 0 19 -84 187 -106 211 -8 8 -14 19 -14 24 0 10 -79 105 -149 178 -125 130 -310 239 -496 293 -265 76 -574 51 -812 -65 -23 -12 -46 -21 -51 -21 -5 0 -11 119 -14 278 -5 285 -8 312 -55 437 -121 319 -398 548 -723 595 -62 9 -215 11 -290 3z m272 -632 c66 -32 134 -102 163 -168 l25 -56 -2 -936 -3 -936 -315 0 -315 0 0 950 c0 932 0 951 20 985 54 94 107 141 195 173 62 23 170 17 232 -12z m1473 -1165 c212 -45 396 -236 426 -440 14 -95 11 -470 -3 -484 -9 -9 -142 -12 -539 -12 -290 0 -534 3 -543 6 -14 5 -16 35 -16 233 1 154 5 244 14 282 48 201 219 372 416 415 73 16 172 16 245 0z m-2983 -5 c157 -26 313 -145 388 -296 53 -106 60 -156 60 -411 0 -184 -2 -213 -16 -218 -9 -3 -255 -6 -549 -6 -456 0 -534 2 -545 15 -18 22 -7 442 13 512 86 289 349 453 649 404z m4302 -1557 c4 -9 0 -53 -8 -98 -8 -45 -22 -135 -31 -201 -9 -66 -23 -158 -31 -205 -8 -47 -14 -96 -14 -110 0 -14 -6 -61 -14 -105 -8 -44 -22 -132 -30 -195 -9 -63 -24 -164 -32 -225 -9 -60 -22 -146 -30 -190 -8 -44 -14 -93 -14 -110 0 -16 -6 -66 -14 -110 -8 -44 -22 -134 -31 -200 -18 -128 -37 -262 -60 -415 -8 -52 -21 -147 -30 -210 -24 -170 -44 -304 -60 -401 -8 -47 -15 -95 -15 -107 0 -20 -12 -53 -48 -132 -67 -144 -226 -263 -397 -296 -103 -20 -4172 -20 -4286 0 -114 20 -200 66 -289 156 -115 116 -165 245 -172 450 l-3 75 1170 5 1170 5 47 28 c68 41 123 108 147 180 26 77 26 107 -1 188 -17 51 -33 75 -78 119 -99 98 15 90 -1352 90 -947 0 -1198 3 -1205 13 -4 6 -10 35 -14 62 -3 28 -11 86 -18 130 -20 133 -39 264 -56 390 -9 66 -23 155 -31 198 -8 42 -14 89 -14 104 0 14 -7 65 -15 112 -8 47 -21 138 -30 201 -9 63 -22 159 -30 213 -69 455 -85 576 -78 595 4 9 612 12 2998 12 2766 0 2993 -1 2999 -16z m-5318 -3950 c153 -50 256 -141 313 -278 36 -86 41 -221 13 -303 -31 -88 -49 -119 -108 -182 -61 -66 -140 -112 -235 -135 -82 -20 -116 -20 -198 0 -216 53 -361 233 -361 449 0 211 128 379 340 449 61 20 175 20 236 0z m4871 -4 c73 -22 92 -33 156 -82 118 -90 177 -212 177 -364 0 -217 -142 -393 -361 -448 -82 -20 -116 -20 -198 0 -258 64 -409 310 -347 564 21 85 63 155 132 219 127 119 287 159 441 111z"/> </g> </svg> 