 <svg  version="1.0" xmlns="http://www.w3.org/2000/svg"  width="900.000000pt" height="900.000000pt" viewBox="0 0 900.000000 900.000000"  preserveAspectRatio="xMidYMid meet">  <g transform="translate(0.000000,900.000000) scale(0.100000,-0.100000)" fill="#8cb811" stroke="none"> <path d="M1200 8404 c-25 -8 -67 -22 -95 -31 -209 -68 -431 -289 -498 -498 -50 -155 -47 -80 -47 -1135 0 -1055 -3 -980 47 -1135 67 -209 289 -431 498 -498 155 -50 80 -47 1136 -47 1055 0 983 -3 1134 47 210 69 431 289 498 498 50 155 47 80 47 1135 0 1055 3 980 -47 1135 -55 170 -215 354 -393 452 -30 17 -91 43 -135 59 l-80 29 -1010 2 c-862 1 -1017 -1 -1055 -13z m2015 -574 c51 -31 84 -64 115 -115 l25 -40 0 -935 0 -935 -25 -40 c-31 -51 -64 -84 -115 -115 l-40 -25 -935 0 -935 0 -40 25 c-51 31 -84 64 -115 115 l-25 40 0 935 0 935 23 41 c34 61 96 113 162 134 14 5 439 8 945 7 l920 -2 40 -25z"/> <path d="M5700 8404 c-25 -8 -67 -22 -95 -31 -209 -68 -431 -289 -498 -498 -50 -155 -47 -80 -47 -1135 0 -1055 -3 -980 47 -1135 67 -209 289 -431 498 -498 155 -50 80 -47 1136 -47 1055 0 983 -3 1134 47 210 69 431 289 498 498 50 155 47 80 47 1135 0 1055 3 980 -47 1135 -55 170 -215 354 -393 452 -30 17 -91 43 -135 59 l-80 29 -1010 2 c-862 1 -1017 -1 -1055 -13z m2015 -574 c51 -31 84 -64 115 -115 l25 -40 0 -935 0 -935 -25 -40 c-31 -51 -64 -84 -115 -115 l-40 -25 -935 0 -935 0 -40 25 c-51 31 -84 64 -115 115 l-25 40 0 935 c0 927 0 935 21 971 34 62 105 122 163 140 14 4 440 7 946 6 l920 -2 40 -25z"/> <path d="M1200 3904 c-25 -8 -67 -22 -95 -31 -209 -68 -431 -289 -498 -498 -50 -155 -47 -80 -47 -1135 0 -1055 -3 -980 47 -1135 67 -209 289 -431 498 -498 155 -50 80 -47 1135 -47 1055 0 980 -3 1135 47 209 67 431 289 498 498 50 155 47 80 47 1135 0 1055 3 980 -47 1135 -67 209 -289 431 -498 498 -155 50 -80 47 -1139 46 -837 0 -998 -3 -1036 -15z m2015 -574 c51 -31 84 -64 115 -115 l25 -40 0 -935 0 -935 -25 -40 c-31 -51 -64 -84 -115 -115 l-40 -25 -935 0 -935 0 -40 25 c-51 31 -84 64 -115 115 l-25 40 0 935 0 935 23 41 c32 58 102 116 161 135 14 4 440 7 946 6 l920 -2 40 -25z"/> <path d="M6485 3909 c-22 -5 -65 -13 -95 -18 -30 -5 -68 -14 -85 -19 -16 -5 -57 -18 -90 -28 -33 -10 -69 -24 -80 -31 -11 -7 -25 -13 -33 -13 -17 0 -152 -66 -232 -115 -227 -136 -445 -356 -581 -585 -109 -185 -172 -353 -214 -578 -17 -94 -21 -457 -4 -532 5 -25 14 -70 19 -100 12 -70 38 -159 71 -245 159 -420 499 -776 904 -950 138 -59 226 -88 325 -105 30 -5 75 -14 100 -19 76 -17 433 -13 530 5 111 21 197 42 238 60 18 8 39 14 47 14 13 0 82 29 185 78 338 163 642 484 800 847 12 28 26 58 31 67 5 10 9 24 9 33 0 8 6 29 14 47 18 41 39 127 60 238 18 97 22 454 5 530 -5 25 -14 70 -19 100 -14 79 -44 179 -77 257 -7 17 -13 34 -13 37 0 12 -76 161 -115 226 -136 227 -356 445 -585 581 -170 101 -349 171 -510 199 -30 5 -75 14 -100 19 -56 12 -450 12 -505 0z m530 -578 c39 -10 81 -23 95 -29 14 -6 49 -20 78 -32 158 -63 341 -210 455 -364 94 -126 139 -222 189 -396 19 -65 22 -100 22 -270 0 -201 -6 -245 -58 -385 -111 -304 -367 -560 -671 -671 -140 -52 -184 -58 -385 -58 -170 0 -205 3 -270 22 -174 50 -270 95 -396 189 -154 114 -301 297 -364 455 -12 29 -26 64 -32 78 -42 104 -52 175 -52 370 0 203 6 240 59 390 131 365 492 663 875 720 96 15 376 3 455 -19z"/> </g> </svg> 