 <svg  version="1.0" xmlns="http://www.w3.org/2000/svg"  width="900.000000pt" height="900.000000pt" viewBox="0 0 900.000000 900.000000"  preserveAspectRatio="xMidYMid meet">  <g transform="translate(0.000000,900.000000) scale(0.100000,-0.100000)" fill="#8cb811" stroke="none"> <path d="M4280 8986 c0 -14 -21 -26 -47 -26 -22 0 -150 -66 -208 -108 -66 -47 -3783 -3759 -3845 -3840 -56 -73 -110 -179 -142 -278 -18 -59 -22 -92 -22 -224 0 -133 3 -165 22 -225 49 -154 118 -269 219 -366 70 -67 151 -128 193 -145 8 -4 38 -17 65 -30 83 -37 183 -57 320 -63 l130 -6 5 -1420 c5 -1349 6 -1424 24 -1490 70 -261 212 -463 420 -598 91 -60 152 -86 301 -133 57 -18 105 -19 900 -19 l840 0 41 22 c48 25 100 81 123 132 14 32 17 152 21 1176 5 1112 6 1141 26 1190 57 143 168 244 308 281 73 20 985 20 1066 0 123 -30 231 -120 291 -242 l34 -69 5 -1145 c3 -630 10 -1156 15 -1170 18 -53 58 -101 112 -137 l56 -38 841 0 c789 0 845 1 906 19 193 55 325 130 456 260 126 127 189 235 260 446 18 52 19 126 22 1490 2 1115 5 1436 15 1442 7 4 60 8 119 8 194 0 357 56 514 175 70 54 124 111 177 189 31 43 88 160 104 211 5 17 15 29 21 27 9 -1 12 56 12 223 0 188 -2 225 -14 225 -8 0 -18 14 -21 33 -11 47 -63 153 -108 219 -52 76 -3800 3823 -3875 3875 -61 42 -169 96 -214 107 -16 3 -28 13 -28 21 0 13 -34 15 -230 15 -190 0 -230 -2 -230 -14z m337 -528 c56 -21 132 -96 1939 -1902 1806 -1807 1881 -1883 1902 -1939 28 -74 28 -140 1 -211 -27 -69 -75 -126 -137 -162 l-47 -28 -270 -7 c-148 -3 -283 -10 -300 -14 -65 -17 -127 -70 -161 -137 l-24 -47 0 -1533 c0 -1663 3 -1576 -53 -1698 -27 -58 -139 -170 -197 -197 -115 -53 -128 -54 -770 -51 l-595 3 -6 1005 c-5 880 -8 1012 -22 1065 -69 258 -205 453 -412 590 -103 68 -169 98 -305 138 -73 21 -89 21 -650 22 -530 0 -580 -1 -640 -19 -207 -59 -333 -129 -460 -256 -42 -41 -90 -93 -108 -115 -36 -46 -113 -196 -138 -270 -48 -142 -47 -122 -53 -1170 l-6 -990 -590 -3 c-652 -3 -670 -2 -787 60 -93 49 -180 156 -211 258 -8 24 -13 527 -17 1600 l-5 1565 -22 40 c-13 22 -28 47 -35 55 -23 28 -85 71 -119 82 -20 6 -148 14 -304 17 -250 6 -273 8 -310 28 -44 24 -115 84 -115 97 0 5 -6 17 -13 25 -17 21 -47 115 -47 150 0 15 10 56 21 92 l21 64 1892 1891 c2066 2065 1914 1922 2038 1923 35 1 78 -7 115 -21z"/> </g> </svg> 