<?xml version="1.0" standalone="no"?>
<!DOCTYPE svg PUBLIC "-//W3C//DTD SVG 20010904//EN"
 "http://www.w3.org/TR/2001/REC-SVG-20010904/DTD/svg10.dtd">
<svg version="1.0" xmlns="http://www.w3.org/2000/svg"
 width="121.000000pt" height="80.000000pt" viewBox="0 0 121.000000 80.000000"
 preserveAspectRatio="xMidYMid meet">
<metadata>
Created by potrace 1.10, written by Peter Selinger 2001-2011
</metadata>
<g transform="translate(0.000000,80.000000) scale(0.100000,-0.100000)"
fill="#000000" stroke="none">
<path d="M578 760 c-9 -6 -46 -64 -83 -130 l-67 -120 -62 0 c-69 0 -111 -20
-150 -73 -18 -25 -21 -45 -24 -162 -3 -116 -1 -139 16 -178 11 -25 32 -53 46
-63 43 -27 104 -34 148 -17 28 11 42 12 51 4 20 -16 407 -17 438 -1 40 20 98
82 109 114 5 17 19 75 30 130 23 114 17 156 -27 198 -48 44 -65 48 -208 48
-135 0 -135 0 -130 23 24 98 33 173 23 192 -23 42 -71 57 -110 35z m62 -56 c0
-9 -7 -59 -16 -111 -23 -133 -26 -131 168 -135 l150 -3 24 -28 c30 -35 30 -71
4 -192 -23 -105 -40 -132 -100 -162 -41 -21 -57 -23 -227 -23 l-183 0 0 214
c0 118 4 217 9 220 5 3 38 58 72 121 44 80 69 115 81 115 10 0 18 -7 18 -16z
m-230 -449 l0 -205 -34 0 c-45 0 -79 13 -105 41 -19 21 -21 34 -21 164 0 180
13 203 118 204 l42 1 0 -205z"/>
</g>
</svg>
