<?xml version="1.0" standalone="no"?>
<!DOCTYPE svg PUBLIC "-//W3C//DTD SVG 20010904//EN"
 "http://www.w3.org/TR/2001/REC-SVG-20010904/DTD/svg10.dtd">
<svg version="1.0" xmlns="http://www.w3.org/2000/svg"
 width="300.000000pt" height="300.000000pt" viewBox="0 0 300.000000 300.000000"
 preserveAspectRatio="xMidYMid meet">
<metadata>
Created by potrace 1.10, written by Peter Selinger 2001-2011
</metadata>
<g transform="translate(0.000000,300.000000) scale(0.100000,-0.100000)"
fill="#aaaaaa" stroke="none">
<path d="M1173 2736 c-375 -72 -702 -336 -840 -681 -67 -167 -77 -221 -77
-425 0 -168 3 -194 27 -283 107 -397 413 -704 805 -807 312 -82 656 -21 923
163 l66 45 239 -239 c259 -260 277 -273 348 -249 64 21 102 98 77 158 -7 15
-119 135 -250 266 l-239 239 45 66 c285 414 261 968 -58 1354 -150 180 -360
314 -586 374 -122 31 -363 41 -480 19z m440 -270 c298 -88 512 -302 604 -603
24 -79 26 -104 26 -238 0 -134 -2 -159 -26 -238 -92 -301 -303 -512 -604 -604
-79 -24 -104 -26 -238 -26 -134 0 -159 2 -238 26 -301 92 -512 303 -604 604
-24 79 -26 104 -26 238 0 134 2 159 26 238 102 334 361 565 704 627 90 17 279
4 376 -24z"/>
</g>
</svg>
