<?xml version="1.0" standalone="no"?>
<!DOCTYPE svg PUBLIC "-//W3C//DTD SVG 20010904//EN"
 "http://www.w3.org/TR/2001/REC-SVG-20010904/DTD/svg10.dtd">
<svg version="1.0" xmlns="http://www.w3.org/2000/svg"
 width="900.000000pt" height="900.000000pt" viewBox="0 0 900.000000 900.000000"
 preserveAspectRatio="xMidYMid meet">
<metadata>
Created by potrace 1.10, written by Peter Selinger 2001-2011
</metadata>
<g transform="translate(0.000000,900.000000) scale(0.100000,-0.100000)"
fill="#8cb811" stroke="none">
<path d="M2585 8696 c-109 -31 -183 -116 -199 -229 -8 -55 -18 -61 -120 -77
-407 -61 -846 -285 -1169 -596 -113 -110 -258 -285 -322 -392 -17 -27 -59 -96
-72 -117 -51 -82 -150 -310 -186 -430 -50 -164 -66 -237 -88 -405 -18 -138
-19 -233 -19 -2100 0 -1867 1 -1962 19 -2100 19 -143 28 -192 57 -300 45 -165
111 -338 178 -460 20 -36 40 -76 46 -89 16 -35 125 -196 192 -281 153 -193
378 -391 595 -523 99 -60 295 -157 317 -157 8 0 17 -4 20 -8 6 -9 193 -71 291
-95 266 -68 235 -67 2365 -67 2131 0 2103 -1 2365 67 84 22 262 78 310 98 362
153 681 393 913 686 67 85 176 244 192 280 6 13 26 53 46 89 88 160 165 381
208 590 47 228 46 194 46 2270 0 1867 -1 1962 -19 2100 -22 168 -38 241 -88
405 -36 120 -135 348 -186 430 -13 21 -55 90 -72 117 -98 163 -337 424 -501
549 -73 56 -192 139 -199 139 -3 0 -24 12 -48 27 -62 40 -248 130 -347 168
-25 9 -55 21 -68 26 -13 5 -45 14 -70 20 -76 17 -92 32 -92 88 0 144 -88 253
-229 282 -98 21 -200 -15 -264 -91 -31 -37 -67 -114 -67 -144 0 -12 -5 -27
-12 -34 -16 -16 -3319 -18 -3348 -2 -11 6 -21 27 -25 52 -17 97 -96 185 -190
213 -61 17 -103 18 -160 1z m3726 -842 c5 -3 9 -47 9 -98 0 -98 11 -138 57
-203 31 -42 107 -88 171 -103 156 -36 331 104 332 267 0 58 15 55 205 -39 420
-210 747 -617 868 -1083 49 -189 47 -99 47 -2245 0 -1782 -2 -2015 -16 -2095
-33 -188 -95 -376 -168 -508 -13 -23 -32 -58 -42 -77 -142 -261 -421 -520
-719 -664 -176 -85 -312 -126 -520 -157 -124 -18 -218 -19 -2043 -19 -1673 0
-1927 2 -2025 15 -146 21 -266 50 -407 100 -121 43 -344 170 -436 247 -158
133 -265 246 -346 365 -150 222 -236 433 -282 698 -14 80 -16 313 -16 2095 0
1782 2 2015 16 2095 33 188 95 376 168 508 13 23 32 58 42 77 29 54 133 200
179 250 218 241 428 383 733 494 96 35 235 67 250 57 5 -3 12 -47 15 -97 10
-155 79 -245 214 -281 48 -12 67 -13 118 -2 92 19 140 55 194 143 21 33 25 56
29 143 4 84 8 106 22 116 13 9 389 11 1680 10 914 -2 1666 -5 1671 -9z"/>
<path d="M2145 6302 c-64 -27 -104 -61 -143 -121 -35 -53 -37 -60 -36 -141 0
-111 24 -160 109 -227 87 -68 -93 -63 2415 -63 2508 0 2328 -5 2415 63 85 67
109 116 110 227 0 82 -1 87 -38 142 -42 63 -82 97 -145 121 -39 16 -212 17
-2345 16 -2140 0 -2305 -1 -2342 -17z"/>
<path d="M5550 2923 c-99 -35 -165 -98 -193 -185 -21 -68 -21 -91 0 -148 36
-95 71 -135 158 -176 38 -18 73 -19 660 -19 700 0 670 -3 751 78 63 64 78 100
78 187 0 108 -37 173 -135 236 l-44 29 -630 2 c-346 1 -637 -1 -645 -4z"/>
</g>
</svg>
