<?xml version="1.0" standalone="no"?>
<!DOCTYPE svg PUBLIC "-//W3C//DTD SVG 20010904//EN"
 "http://www.w3.org/TR/2001/REC-SVG-20010904/DTD/svg10.dtd">
<svg version="1.0" xmlns="http://www.w3.org/2000/svg"
 width="300.000000pt" height="300.000000pt" viewBox="0 0 300.000000 300.000000"
 preserveAspectRatio="xMidYMid meet">
<metadata></metadata>
<g transform="translate(0.000000,300.000000) scale(0.100000,-0.100000)"
fill="#a9a9a9" stroke="none">
<path d="M1300 2991 c-116 -37 -176 -121 -200 -277 l-12 -81 -54 -23 -54 -22
-65 47 c-88 62 -140 85 -201 85 -101 0 -137 -21 -280 -164 -108 -108 -134
-140 -147 -180 -34 -101 -20 -169 58 -281 30 -44 55 -85 55 -91 0 -6 -9 -32
-20 -57 l-20 -45 -92 -17 c-105 -19 -150 -39 -194 -87 -66 -69 -69 -82 -69
-303 0 -229 5 -248 89 -322 49 -43 81 -55 197 -74 l77 -13 22 -52 21 -53 -54
-79 c-66 -97 -81 -137 -75 -211 7 -86 32 -126 157 -252 125 -126 174 -158 256
-166 70 -7 114 8 213 74 l82 56 41 -13 c23 -8 47 -19 53 -26 7 -6 18 -49 25
-95 21 -139 78 -219 180 -254 60 -20 347 -21 414 -1 101 30 165 115 187 246
18 110 16 106 72 127 l53 20 85 -58 c96 -66 154 -83 232 -69 76 15 106 35 230
159 133 133 160 178 161 271 0 72 -13 105 -79 201 l-53 76 21 52 c15 33 29 53
43 56 11 3 49 9 85 15 131 22 216 86 246 187 20 67 19 354 -1 414 -35 102
-115 159 -253 180 -45 7 -85 15 -90 18 -4 3 -17 28 -29 56 l-21 49 58 84 c85
122 98 205 47 307 -11 22 -70 91 -131 153 -132 134 -183 165 -279 165 -71 0
-113 -18 -210 -88 -63 -46 -57 -46 -138 -11 -36 15 -37 17 -53 107 -19 104
-40 151 -88 195 -68 65 -85 69 -288 71 -102 1 -196 -2 -210 -6z m379 -194 c16
-18 26 -52 42 -143 23 -139 32 -151 129 -187 36 -14 88 -35 116 -47 32 -14 60
-20 75 -17 13 4 68 38 123 77 135 96 132 96 268 -37 60 -59 112 -119 115 -132
9 -35 -5 -64 -75 -162 -33 -47 -64 -97 -67 -110 -4 -17 8 -57 39 -129 25 -58
46 -111 46 -118 0 -25 64 -50 173 -67 160 -26 157 -22 157 -223 0 -206 7 -197
-165 -228 -87 -16 -134 -29 -146 -41 -17 -18 -81 -166 -102 -235 -11 -36 -9
-40 49 -123 88 -127 98 -147 90 -180 -9 -35 -185 -218 -227 -235 -41 -17 -62
-9 -173 70 -54 38 -108 70 -120 70 -11 0 -48 -13 -81 -28 -33 -16 -83 -36
-111 -46 -29 -9 -59 -25 -68 -35 -11 -12 -26 -69 -40 -147 -31 -171 -22 -164
-226 -164 -204 0 -195 -7 -226 164 -14 78 -29 135 -40 147 -9 10 -39 26 -68
35 -28 9 -71 27 -96 39 -85 43 -105 39 -224 -45 -138 -98 -141 -97 -269 27
-55 54 -106 112 -113 130 -18 41 -9 63 59 156 71 96 80 113 74 151 -4 26 -51
144 -89 222 -14 30 -42 41 -150 59 -51 9 -106 20 -122 25 -52 18 -55 31 -56
206 0 201 -6 194 165 224 138 25 156 36 181 114 9 28 27 72 40 98 40 79 34
107 -46 219 -99 138 -98 143 27 272 54 55 112 106 130 113 41 18 63 9 156 -59
124 -92 130 -93 238 -43 41 19 86 37 101 41 56 14 73 45 96 176 31 174 23 169
227 169 157 0 162 -1 184 -23z"/>
<path d="M1351 2064 c-196 -52 -364 -223 -415 -420 -20 -78 -21 -213 -1 -288
25 -94 83 -194 155 -266 228 -228 592 -228 820 0 228 228 228 592 0 820 -73
73 -170 129 -266 154 -76 20 -220 20 -293 0z m220 -164 c171 -32 300 -164 330
-339 29 -164 -64 -347 -215 -421 -254 -125 -538 20 -587 299 -29 164 64 347
215 421 93 46 165 57 257 40z"/>
</g>
</svg>
